<svg xmlns="http://www.w3.org/2000/svg" xmlns:xlink="http://www.w3.org/1999/xlink" width="1200" zoomAndPan="magnify" viewBox="0 0 900 374.999991" height="500" preserveAspectRatio="xMidYMid meet" version="1.0"><defs><clipPath id="290233cd09"><path d="M 342.691406 80.191406 L 557.191406 80.191406 L 557.191406 294.691406 L 342.691406 294.691406 Z M 342.691406 80.191406 " clip-rule="nonzero"/></clipPath></defs><g clip-path="url(#290233cd09)"><path fill="#2a2e30" d="M 557.308594 187.5 C 557.308594 246.625 509.226562 294.691406 450.117188 294.691406 L 381.351562 294.691406 L 381.351562 152.539062 C 381.351562 151.96875 381.40625 151.410156 381.515625 150.851562 C 381.628906 150.296875 381.792969 149.757812 382.007812 149.234375 C 382.226562 148.710938 382.492188 148.214844 382.804688 147.742188 C 383.121094 147.269531 383.476562 146.835938 383.878906 146.433594 C 384.28125 146.035156 384.714844 145.675781 385.1875 145.359375 C 385.660156 145.046875 386.15625 144.78125 386.679688 144.5625 C 387.203125 144.347656 387.742188 144.183594 388.296875 144.070312 C 388.855469 143.960938 389.414062 143.90625 389.980469 143.90625 C 390.550781 143.90625 391.109375 143.960938 391.667969 144.070312 C 392.222656 144.183594 392.761719 144.347656 393.285156 144.5625 C 393.808594 144.78125 394.304688 145.046875 394.777344 145.359375 C 395.25 145.675781 395.683594 146.035156 396.085938 146.433594 C 396.484375 146.835938 396.84375 147.269531 397.160156 147.742188 C 397.472656 148.214844 397.738281 148.710938 397.957031 149.234375 C 398.171875 149.757812 398.335938 150.296875 398.449219 150.851562 C 398.558594 151.410156 398.613281 151.96875 398.613281 152.539062 L 398.613281 277.449219 L 450.113281 277.449219 C 499.703125 277.449219 540.050781 237.105469 540.050781 187.511719 C 540.050781 137.917969 499.707031 97.578125 450.113281 97.578125 L 388.90625 97.578125 C 388.339844 97.578125 387.78125 97.519531 387.222656 97.410156 C 386.667969 97.300781 386.128906 97.136719 385.605469 96.917969 C 385.082031 96.703125 384.582031 96.4375 384.113281 96.121094 C 383.640625 95.808594 383.203125 95.449219 382.804688 95.046875 C 382.402344 94.648438 382.042969 94.210938 381.730469 93.738281 C 381.414062 93.269531 381.148438 92.769531 380.933594 92.246094 C 380.714844 91.722656 380.550781 91.183594 380.441406 90.628906 C 380.328125 90.070312 380.273438 89.511719 380.273438 88.941406 C 380.273438 88.375 380.328125 87.816406 380.441406 87.257812 C 380.550781 86.703125 380.714844 86.164062 380.933594 85.640625 C 381.148438 85.117188 381.414062 84.617188 381.730469 84.148438 C 382.042969 83.675781 382.402344 83.238281 382.804688 82.839844 C 383.203125 82.4375 383.640625 82.078125 384.113281 81.765625 C 384.582031 81.449219 385.082031 81.183594 385.605469 80.96875 C 386.128906 80.75 386.667969 80.585938 387.222656 80.476562 C 387.78125 80.363281 388.339844 80.308594 388.90625 80.308594 L 450.113281 80.308594 C 509.238281 80.308594 557.308594 128.394531 557.308594 187.5 Z M 511.648438 187.5 C 511.648438 221.429688 484.046875 249.03125 450.117188 249.03125 L 436.558594 249.03125 L 436.558594 187.5 C 436.558594 186.933594 436.503906 186.371094 436.390625 185.816406 C 436.28125 185.261719 436.117188 184.71875 435.898438 184.195312 C 435.683594 183.671875 435.417969 183.175781 435.101562 182.703125 C 434.789062 182.234375 434.429688 181.796875 434.027344 181.398438 C 433.628906 180.996094 433.191406 180.636719 432.722656 180.324219 C 432.25 180.007812 431.753906 179.742188 431.230469 179.527344 C 430.707031 179.308594 430.164062 179.144531 429.609375 179.035156 C 429.054688 178.921875 428.492188 178.867188 427.925781 178.867188 C 427.359375 178.867188 426.796875 178.921875 426.242188 179.035156 C 425.6875 179.144531 425.148438 179.308594 424.621094 179.527344 C 424.097656 179.742188 423.601562 180.007812 423.128906 180.324219 C 422.660156 180.636719 422.222656 180.996094 421.824219 181.398438 C 421.421875 181.796875 421.0625 182.234375 420.75 182.703125 C 420.433594 183.175781 420.167969 183.671875 419.953125 184.195312 C 419.734375 184.71875 419.570312 185.261719 419.460938 185.816406 C 419.351562 186.371094 419.292969 186.933594 419.292969 187.5 L 419.292969 266.292969 L 450.105469 266.292969 C 493.554688 266.292969 528.898438 230.949219 528.898438 187.5 C 528.898438 144.050781 493.566406 108.707031 450.113281 108.707031 L 342.691406 108.707031 L 342.691406 286.078125 C 342.691406 286.644531 342.746094 287.207031 342.855469 287.761719 C 342.96875 288.320312 343.132812 288.859375 343.347656 289.382812 C 343.566406 289.90625 343.832031 290.402344 344.144531 290.875 C 344.460938 291.347656 344.820312 291.78125 345.21875 292.183594 C 345.621094 292.582031 346.054688 292.941406 346.527344 293.257812 C 347 293.570312 347.496094 293.835938 348.019531 294.054688 C 348.542969 294.269531 349.082031 294.433594 349.636719 294.542969 C 350.195312 294.65625 350.753906 294.710938 351.324219 294.710938 C 351.890625 294.710938 352.449219 294.65625 353.007812 294.542969 C 353.5625 294.433594 354.101562 294.269531 354.625 294.054688 C 355.148438 293.835938 355.648438 293.570312 356.117188 293.253906 C 356.589844 292.941406 357.023438 292.582031 357.425781 292.183594 C 357.828125 291.78125 358.183594 291.34375 358.5 290.875 C 358.8125 290.402344 359.078125 289.90625 359.296875 289.382812 C 359.511719 288.859375 359.675781 288.320312 359.789062 287.761719 C 359.898438 287.207031 359.953125 286.644531 359.953125 286.078125 L 359.953125 125.96875 L 450.113281 125.96875 C 484.046875 125.96875 511.648438 153.589844 511.648438 187.5 Z M 511.648438 187.5 " fill-opacity="1" fill-rule="nonzero"/></g></svg>