<svg xmlns="http://www.w3.org/2000/svg" xmlns:xlink="http://www.w3.org/1999/xlink" width="1200" zoomAndPan="magnify" viewBox="0 0 900 374.999991" height="500" preserveAspectRatio="xMidYMid meet" version="1.0"><defs><g/><clipPath id="00652f3ba0"><path d="M 231.628906 111.097656 L 362 111.097656 L 362 241.597656 L 231.628906 241.597656 Z M 231.628906 111.097656 " clip-rule="nonzero"/></clipPath></defs><g fill="#2a2e30" fill-opacity="1"><g transform="translate(436.272761, 219.134707)"><g><path d="M 2.96875 -18.203125 L 10.375 -18.203125 C 12.300781 -18.203125 14 -17.816406 15.46875 -17.046875 C 16.945312 -16.273438 18.09375 -15.195312 18.90625 -13.8125 C 19.71875 -12.4375 20.125 -10.863281 20.125 -9.09375 C 20.125 -7.332031 19.71875 -5.757812 18.90625 -4.375 C 18.09375 -3 16.945312 -1.925781 15.46875 -1.15625 C 14 -0.382812 12.300781 0 10.375 0 L 2.96875 0 Z M 10.265625 -1.65625 C 11.859375 -1.65625 13.253906 -1.972656 14.453125 -2.609375 C 15.648438 -3.242188 16.578125 -4.117188 17.234375 -5.234375 C 17.890625 -6.359375 18.21875 -7.644531 18.21875 -9.09375 C 18.21875 -10.550781 17.890625 -11.835938 17.234375 -12.953125 C 16.578125 -14.078125 15.648438 -14.953125 14.453125 -15.578125 C 13.253906 -16.210938 11.859375 -16.53125 10.265625 -16.53125 L 4.890625 -16.53125 L 4.890625 -1.65625 Z M 10.265625 -1.65625 "/></g></g></g><g fill="#2a2e30" fill-opacity="1"><g transform="translate(470.742306, 219.134707)"><g><path d="M 2.96875 -18.203125 L 4.890625 -18.203125 L 4.890625 0 L 2.96875 0 Z M 3.921875 -20.28125 C 3.578125 -20.28125 3.28125 -20.398438 3.03125 -20.640625 C 2.789062 -20.890625 2.671875 -21.1875 2.671875 -21.53125 C 2.671875 -21.875 2.789062 -22.164062 3.03125 -22.40625 C 3.28125 -22.65625 3.578125 -22.78125 3.921875 -22.78125 C 4.265625 -22.78125 4.554688 -22.65625 4.796875 -22.40625 C 5.046875 -22.164062 5.171875 -21.875 5.171875 -21.53125 C 5.171875 -21.1875 5.046875 -20.890625 4.796875 -20.640625 C 4.554688 -20.398438 4.265625 -20.28125 3.921875 -20.28125 Z M 3.921875 -20.28125 "/></g></g></g><g fill="#2a2e30" fill-opacity="1"><g transform="translate(491.59193, 219.134707)"><g><path d="M 16.09375 -1.65625 L 16.09375 0 L 1.171875 0 L 1.171875 -1.328125 L 13.234375 -16.53125 L 1.359375 -16.53125 L 1.359375 -18.203125 L 15.78125 -18.203125 L 15.78125 -16.875 L 3.75 -1.65625 Z M 16.09375 -1.65625 "/></g></g></g><g fill="#2a2e30" fill-opacity="1"><g transform="translate(521.512838, 219.134707)"><g><path d="M 14.375 -4.859375 L 4.234375 -4.859375 L 2.046875 0 L 0.046875 0 L 8.375 -18.203125 L 10.265625 -18.203125 L 18.59375 0 L 16.5625 0 Z M 13.671875 -6.421875 L 9.3125 -16.203125 L 4.9375 -6.421875 Z M 13.671875 -6.421875 "/></g></g></g><g fill="#2a2e30" fill-opacity="1"><g transform="translate(553.149226, 219.134707)"><g><path d="M 9.203125 -6.296875 L 9.203125 0 L 7.3125 0 L 7.3125 -6.296875 L 0.03125 -18.203125 L 2.078125 -18.203125 L 8.3125 -7.984375 L 14.5625 -18.203125 L 16.484375 -18.203125 Z M 9.203125 -6.296875 "/></g></g></g><g fill="#2a2e30" fill-opacity="1"><g transform="translate(582.654256, 219.134707)"><g><path d="M 18.171875 -18.203125 L 18.171875 0 L 16.59375 0 L 4.890625 -14.765625 L 4.890625 0 L 2.96875 0 L 2.96875 -18.203125 L 4.546875 -18.203125 L 16.28125 -3.4375 L 16.28125 -18.203125 Z M 18.171875 -18.203125 "/></g></g></g><g fill="#2a2e30" fill-opacity="1"><g transform="translate(397.832855, 183.934718)"><g><path d="M 2.9375 -29.40625 L 16.84375 -29.40625 C 20.0625 -29.40625 22.914062 -28.800781 25.40625 -27.59375 C 27.894531 -26.382812 29.828125 -24.675781 31.203125 -22.46875 C 32.578125 -20.257812 33.265625 -17.671875 33.265625 -14.703125 C 33.265625 -11.734375 32.578125 -9.140625 31.203125 -6.921875 C 29.828125 -4.710938 27.894531 -3.003906 25.40625 -1.796875 C 22.914062 -0.597656 20.0625 0 16.84375 0 L 2.9375 0 Z M 16.5 -6.640625 C 19.019531 -6.640625 21.039062 -7.351562 22.5625 -8.78125 C 24.09375 -10.207031 24.859375 -12.179688 24.859375 -14.703125 C 24.859375 -17.222656 24.09375 -19.195312 22.5625 -20.625 C 21.039062 -22.050781 19.019531 -22.765625 16.5 -22.765625 L 11.25 -22.765625 L 11.25 -6.640625 Z M 16.5 -6.640625 "/></g></g></g><g fill="#2a2e30" fill-opacity="1"><g transform="translate(443.024849, 183.934718)"><g><path d="M 16.5 0.59375 C 12.132812 0.59375 8.738281 -0.59375 6.3125 -2.96875 C 3.894531 -5.351562 2.6875 -8.734375 2.6875 -13.109375 L 2.6875 -29.40625 L 11 -29.40625 L 11 -13.359375 C 11 -8.648438 12.863281 -6.296875 16.59375 -6.296875 C 20.289062 -6.296875 22.140625 -8.648438 22.140625 -13.359375 L 22.140625 -29.40625 L 30.328125 -29.40625 L 30.328125 -13.109375 C 30.328125 -8.734375 29.113281 -5.351562 26.6875 -2.96875 C 24.269531 -0.59375 20.875 0.59375 16.5 0.59375 Z M 12.140625 -31.75 C 11.179688 -31.75 10.382812 -32.050781 9.75 -32.65625 C 9.125 -33.257812 8.8125 -34.050781 8.8125 -35.03125 C 8.8125 -36.007812 9.125 -36.804688 9.75 -37.421875 C 10.382812 -38.035156 11.179688 -38.34375 12.140625 -38.34375 C 13.085938 -38.34375 13.875 -38.035156 14.5 -37.421875 C 15.132812 -36.804688 15.453125 -36.007812 15.453125 -35.03125 C 15.453125 -34.050781 15.132812 -33.257812 14.5 -32.65625 C 13.875 -32.050781 13.085938 -31.75 12.140625 -31.75 Z M 21.046875 -31.75 C 20.085938 -31.75 19.289062 -32.050781 18.65625 -32.65625 C 18.03125 -33.257812 17.71875 -34.050781 17.71875 -35.03125 C 17.71875 -36.007812 18.03125 -36.804688 18.65625 -37.421875 C 19.289062 -38.035156 20.085938 -38.34375 21.046875 -38.34375 C 21.992188 -38.34375 22.78125 -38.035156 23.40625 -37.421875 C 24.039062 -36.804688 24.359375 -36.007812 24.359375 -35.03125 C 24.359375 -34.050781 24.039062 -33.257812 23.40625 -32.65625 C 22.78125 -32.050781 21.992188 -31.75 21.046875 -31.75 Z M 21.046875 -31.75 "/></g></g></g><g fill="#2a2e30" fill-opacity="1"><g transform="translate(486.53684, 183.934718)"><g><path d="M 27.796875 -6.59375 L 27.796875 0 L 1.46875 0 L 1.46875 -5.203125 L 16.296875 -22.8125 L 1.84375 -22.8125 L 1.84375 -29.40625 L 27.171875 -29.40625 L 27.171875 -24.1875 L 12.34375 -6.59375 Z M 27.796875 -6.59375 "/></g></g></g><g fill="#2a2e30" fill-opacity="1"><g transform="translate(525.554839, 183.934718)"><g><path d="M 14.28125 -10.671875 L 11.171875 -7.34375 L 11.171875 0 L 2.9375 0 L 2.9375 -29.40625 L 11.171875 -29.40625 L 11.171875 -17.171875 L 22.546875 -29.40625 L 31.703125 -29.40625 L 19.703125 -16.375 L 32.34375 0 L 22.6875 0 Z M 14.28125 -10.671875 "/></g></g></g><g fill="#2a2e30" fill-opacity="1"><g transform="translate(567.638836, 183.934718)"><g><path d="M 22.640625 -5.71875 L 10.203125 -5.71875 L 7.890625 0 L -0.59375 0 L 12.390625 -29.40625 L 20.578125 -29.40625 L 33.59375 0 L 24.953125 0 Z M 20.203125 -11.84375 L 16.421875 -21.25 L 12.640625 -11.84375 Z M 20.203125 -11.84375 "/></g></g></g><g fill="#2a2e30" fill-opacity="1"><g transform="translate(611.150826, 183.934718)"><g><path d="M 15.796875 -7.8125 L 11.25 -7.8125 L 11.25 0 L 2.9375 0 L 2.9375 -29.40625 L 16.375 -29.40625 C 19.039062 -29.40625 21.351562 -28.960938 23.3125 -28.078125 C 25.269531 -27.191406 26.78125 -25.929688 27.84375 -24.296875 C 28.90625 -22.660156 29.4375 -20.734375 29.4375 -18.515625 C 29.4375 -16.390625 28.9375 -14.535156 27.9375 -12.953125 C 26.945312 -11.367188 25.53125 -10.128906 23.6875 -9.234375 L 30.03125 0 L 21.125 0 Z M 21.046875 -18.515625 C 21.046875 -19.890625 20.609375 -20.953125 19.734375 -21.703125 C 18.867188 -22.460938 17.582031 -22.84375 15.875 -22.84375 L 11.25 -22.84375 L 11.25 -14.234375 L 15.875 -14.234375 C 17.582031 -14.234375 18.867188 -14.601562 19.734375 -15.34375 C 20.609375 -16.09375 21.046875 -17.148438 21.046875 -18.515625 Z M 21.046875 -18.515625 "/></g></g></g><g clip-path="url(#00652f3ba0)"><path fill="#2a2e30" d="M 361.953125 176.261719 C 361.953125 212.164062 332.757812 241.351562 296.863281 241.351562 L 255.105469 241.351562 L 255.105469 155.03125 C 255.105469 154.683594 255.140625 154.34375 255.207031 154.007812 C 255.273438 153.667969 255.371094 153.339844 255.503906 153.023438 C 255.636719 152.707031 255.796875 152.402344 255.988281 152.117188 C 256.179688 151.832031 256.398438 151.566406 256.640625 151.324219 C 256.882812 151.078125 257.148438 150.863281 257.433594 150.671875 C 257.722656 150.480469 258.023438 150.320312 258.339844 150.1875 C 258.660156 150.054688 258.988281 149.957031 259.324219 149.890625 C 259.660156 149.820312 260.003906 149.789062 260.347656 149.789062 C 260.691406 149.789062 261.03125 149.820312 261.367188 149.890625 C 261.707031 149.957031 262.035156 150.054688 262.351562 150.1875 C 262.671875 150.320312 262.972656 150.480469 263.257812 150.671875 C 263.542969 150.863281 263.808594 151.078125 264.054688 151.324219 C 264.296875 151.566406 264.511719 151.832031 264.703125 152.117188 C 264.894531 152.402344 265.058594 152.707031 265.1875 153.023438 C 265.320312 153.339844 265.421875 153.667969 265.488281 154.007812 C 265.554688 154.34375 265.585938 154.683594 265.585938 155.03125 L 265.585938 230.878906 L 296.859375 230.878906 C 326.972656 230.878906 351.472656 206.382812 351.472656 176.269531 C 351.472656 146.152344 326.976562 121.65625 296.859375 121.65625 L 259.695312 121.65625 C 259.351562 121.65625 259.007812 121.621094 258.671875 121.554688 C 258.332031 121.488281 258.007812 121.386719 257.6875 121.257812 C 257.371094 121.125 257.066406 120.960938 256.78125 120.773438 C 256.496094 120.582031 256.230469 120.363281 255.988281 120.121094 C 255.742188 119.875 255.527344 119.609375 255.335938 119.324219 C 255.144531 119.039062 254.984375 118.738281 254.851562 118.417969 C 254.71875 118.101562 254.621094 117.773438 254.550781 117.433594 C 254.484375 117.097656 254.453125 116.757812 254.453125 116.414062 C 254.453125 116.066406 254.484375 115.726562 254.550781 115.390625 C 254.621094 115.050781 254.71875 114.722656 254.851562 114.40625 C 254.984375 114.089844 255.144531 113.785156 255.335938 113.5 C 255.527344 113.214844 255.742188 112.949219 255.988281 112.707031 C 256.230469 112.460938 256.496094 112.246094 256.78125 112.054688 C 257.066406 111.863281 257.371094 111.699219 257.6875 111.570312 C 258.007812 111.4375 258.332031 111.335938 258.671875 111.269531 C 259.007812 111.203125 259.351562 111.171875 259.695312 111.171875 L 296.859375 111.171875 C 332.765625 111.171875 361.953125 140.371094 361.953125 176.261719 Z M 334.226562 176.261719 C 334.226562 196.863281 317.46875 213.625 296.863281 213.625 L 288.628906 213.625 L 288.628906 176.261719 C 288.628906 175.914062 288.59375 175.574219 288.527344 175.238281 C 288.460938 174.898438 288.363281 174.570312 288.230469 174.253906 C 288.097656 173.9375 287.9375 173.632812 287.746094 173.347656 C 287.554688 173.0625 287.335938 172.796875 287.09375 172.554688 C 286.851562 172.308594 286.585938 172.09375 286.300781 171.902344 C 286.011719 171.710938 285.710938 171.550781 285.394531 171.417969 C 285.074219 171.285156 284.746094 171.1875 284.410156 171.121094 C 284.074219 171.050781 283.730469 171.019531 283.386719 171.019531 C 283.042969 171.019531 282.703125 171.050781 282.363281 171.121094 C 282.027344 171.1875 281.699219 171.285156 281.382812 171.417969 C 281.0625 171.550781 280.761719 171.710938 280.476562 171.902344 C 280.191406 172.09375 279.925781 172.308594 279.679688 172.554688 C 279.4375 172.796875 279.222656 173.0625 279.03125 173.347656 C 278.839844 173.632812 278.675781 173.9375 278.546875 174.253906 C 278.414062 174.570312 278.3125 174.898438 278.246094 175.238281 C 278.179688 175.574219 278.144531 175.914062 278.144531 176.261719 L 278.144531 224.105469 L 296.855469 224.105469 C 323.238281 224.105469 344.703125 202.644531 344.703125 176.261719 C 344.703125 149.875 323.246094 128.414062 296.859375 128.414062 L 231.628906 128.414062 L 231.628906 236.121094 C 231.628906 236.464844 231.664062 236.804688 231.730469 237.144531 C 231.796875 237.480469 231.898438 237.808594 232.027344 238.128906 C 232.160156 238.445312 232.320312 238.746094 232.511719 239.035156 C 232.703125 239.320312 232.921875 239.585938 233.164062 239.828125 C 233.40625 240.070312 233.671875 240.289062 233.957031 240.480469 C 234.246094 240.671875 234.546875 240.832031 234.863281 240.964844 C 235.183594 241.09375 235.511719 241.195312 235.847656 241.261719 C 236.1875 241.328125 236.527344 241.363281 236.871094 241.363281 C 237.214844 241.363281 237.554688 241.328125 237.894531 241.261719 C 238.230469 241.195312 238.558594 241.09375 238.875 240.964844 C 239.195312 240.832031 239.496094 240.671875 239.78125 240.480469 C 240.070312 240.289062 240.332031 240.070312 240.578125 239.828125 C 240.820312 239.585938 241.039062 239.320312 241.230469 239.035156 C 241.421875 238.746094 241.582031 238.445312 241.714844 238.128906 C 241.84375 237.808594 241.945312 237.480469 242.011719 237.144531 C 242.078125 236.804688 242.113281 236.464844 242.113281 236.121094 L 242.113281 138.894531 L 296.859375 138.894531 C 317.46875 138.894531 334.226562 155.667969 334.226562 176.261719 Z M 334.226562 176.261719 " fill-opacity="1" fill-rule="nonzero"/></g></svg>